<svg width="16" height="12" viewBox="0 0 16 12" fill="none" xmlns="http://www.w3.org/2000/svg">
<path d="M5.13004 8.6414L13.5964 0.384839C13.8595 0.128279 14.1943 0 14.6009 0C15.0075 0 15.3423 0.128279 15.6054 0.384839C15.8685 0.641399 16 0.967929 16 1.36443C16 1.76093 15.8685 2.08746 15.6054 2.34402L6.13453 11.5802C5.84753 11.8601 5.51271 12 5.13004 12C4.74738 12 4.41256 11.8601 4.12556 11.5802L0.394618 7.94169C0.131539 7.68513 0 7.3586 0 6.9621C0 6.5656 0.131539 6.23907 0.394618 5.98251C0.657697 5.72595 0.992526 5.59767 1.3991 5.59767C1.80568 5.59767 2.14051 5.72595 2.40359 5.98251L5.13004 8.6414Z" fill="#3C3C3C"/>
</svg>
