<svg width="18" height="18" viewBox="0 0 18 18" fill="none" xmlns="http://www.w3.org/2000/svg">
<path d="M9 18C13.9706 18 18 13.9706 18 9C18 4.02937 13.9706 0 9 0C4.02937 0 0 4.02937 0 9C0 13.9706 4.02937 18 9 18Z" fill="#D6001C"/>
<path d="M5.3554 5V8.0876C5.79176 7.52711 6.31482 7.24498 6.92143 7.24498C7.23387 7.24498 7.51366 7.30927 7.76466 7.43672C8.01636 7.56342 8.20452 7.72604 8.3316 7.92346C8.45938 8.12277 8.54574 8.34099 8.59243 8.58153C8.63877 8.82092 8.66194 9.19345 8.66194 9.69872V13H7.30619V10.0266C7.30619 9.43663 7.28161 9.06297 7.23001 8.90413C7.18166 8.74853 7.08575 8.6152 6.95794 8.52593C6.82735 8.431 6.66482 8.38411 6.46858 8.38411C6.24391 8.38411 6.04241 8.44462 5.86723 8.56488C5.6882 8.68591 5.55971 8.86669 5.47827 9.10835C5.39542 9.3504 5.354 9.7078 5.3554 10.1809L5.354 13H4V5H5.35575M10.6938 5V8.0876C11.1305 7.52711 11.6532 7.24498 12.2595 7.24498C12.5709 7.24498 12.8528 7.30927 13.1041 7.43672C13.3548 7.56342 13.5429 7.72604 13.6693 7.92346C13.7968 8.12145 13.8856 8.34536 13.9301 8.58153C13.9768 8.82092 14 9.19345 14 9.69872V13H12.6456V10.0266C12.6456 9.43663 12.62 9.06297 12.5684 8.90413C12.5201 8.74831 12.4239 8.61491 12.2957 8.52593C12.1665 8.431 12.0025 8.38411 11.8063 8.38411C11.582 8.38411 11.3805 8.44462 11.2049 8.56488C11.0284 8.68591 10.8992 8.86669 10.8167 9.10835C10.7352 9.3504 10.6938 9.7078 10.6938 10.1809V13H9.33982V5H10.6938Z" fill="#FEFEFE"/>
</svg>
