<svg width="33" height="33" viewBox="0 0 33 33" fill="none" xmlns="http://www.w3.org/2000/svg">
<path d="M32.4373 20.2742C32.3534 20.0038 32.1847 19.7676 31.9562 19.6006C31.7276 19.4335 31.4513 19.3445 31.1683 19.3468L30.8103 19.4118C28.48 20.0551 26.0208 20.0687 23.6835 19.4511C21.3462 18.8336 19.2146 17.6071 17.506 15.8967C15.7974 14.1863 14.5731 12.0532 13.9579 9.71514C13.3427 7.37705 13.3586 4.91759 14.004 2.58767C14.0359 2.4933 14.0524 2.39441 14.0529 2.29479C14.0683 2.08481 14.032 1.87424 13.947 1.6816C13.862 1.48896 13.731 1.32014 13.5656 1.18999C13.4001 1.05983 13.2051 0.972326 12.9979 0.935161C12.7907 0.897996 12.5775 0.91231 12.3771 0.976843C9.64192 1.74357 7.15512 3.21314 5.16408 5.23936C3.17304 7.26559 1.74716 9.77785 1.02828 12.5262C0.309394 15.2746 0.322561 18.1634 1.06647 20.9051C1.81038 23.6468 3.2591 26.146 5.26852 28.154C7.27795 30.162 9.77804 31.6088 12.5201 32.3506C15.2622 33.0923 18.1506 33.1031 20.8982 32.382C23.6457 31.6608 26.1566 30.2327 28.181 28.2399C30.2054 26.247 31.6729 23.7587 32.4373 21.0227C32.5191 20.7799 32.5191 20.517 32.4373 20.2742V20.2742ZM16.7698 30.3134C13.6527 30.3159 10.6283 29.2526 8.19841 27.2998C5.76853 25.347 4.0792 22.6221 3.41063 19.5772C2.74206 16.5322 3.13443 13.3502 4.52267 10.559C5.9109 7.76768 8.21157 5.53492 11.043 4.23104C10.7367 6.68668 10.995 9.17987 11.7983 11.5205C12.6016 13.8612 13.9287 15.9875 15.6784 17.7373C17.4281 19.4872 19.5542 20.8144 21.8946 21.6178C24.235 22.4212 26.728 22.6796 29.1834 22.3732C28.0826 24.7396 26.3303 26.7433 24.1318 28.1496C21.9333 29.5559 19.3796 30.3065 16.7698 30.3134V30.3134Z" fill="#3C3C3C"/>
</svg>
