<svg width="32" height="32" viewBox="0 0 32 32" fill="none" xmlns="http://www.w3.org/2000/svg">
<g clip-path="url(#clip0_102_2)">
<path d="M31.5067 6.22224C30.8907 5.16357 29.7573 4.44446 28.4444 4.44446H16V6.22224H31.5067ZM0 22.2222H32V24H0V22.2222ZM16 15.1111H32V16.8889H16V15.1111ZM16 11.5556H32V13.3333H16V11.5556ZM0 18.6667H32V20.4445H0V18.6667ZM3.55556 27.5556H28.4444C29.7573 27.5556 30.8907 26.8365 31.5067 25.7778H0.493333C1.10933 26.8365 2.24267 27.5556 3.55556 27.5556ZM16 8.00001H32V9.77779H16V8.00001Z" fill="#B22334"/>
<path d="M0.0604444 24.6036C0.0755556 24.6862 0.0924444 24.7689 0.112889 24.8498C0.136 24.9396 0.164444 25.0258 0.194667 25.1129C0.273778 25.3431 0.369778 25.5653 0.490667 25.7733L0.493333 25.7778H31.5067L31.5084 25.7742C31.6278 25.5647 31.7266 25.3441 31.8036 25.1156C31.8621 24.9487 31.9073 24.7775 31.9387 24.6036C31.9751 24.408 32 24.2071 32 24H0C0 24.2071 0.0248889 24.4071 0.0604444 24.6036ZM0 20.4445H32V22.2222H0V20.4445ZM0 16.8889V18.6667H32V16.8889H16H0ZM16 13.3333H32V15.1111H16V13.3333ZM16 9.77778H32V11.5556H16V9.77778ZM0.493333 6.22223L0.490667 6.22667L0.493333 6.22223ZM0.113778 7.15023C0.136 7.05956 0.167111 6.97334 0.195556 6.88623C0.164687 6.97307 0.137405 7.06114 0.113778 7.15023V7.15023ZM16 8.00001H32C32 7.7929 31.9751 7.59201 31.9387 7.39556C31.9075 7.22144 31.862 7.05018 31.8027 6.88356C31.7256 6.65406 31.6265 6.43258 31.5067 6.22223H16V8.00001Z" fill="#EEEEEE"/>
<path d="M16 4.44446H3.55556C2.61256 4.44446 1.70819 4.81906 1.0414 5.48586C0.374602 6.15265 0 7.05702 0 8.00001L0 16.8889H16V4.44446Z" fill="#3C3B6E"/>
<path d="M1.77866 6.86756L2.328 7.26667L2.11822 7.91112L2.66666 7.5129L3.216 7.91112L3.00622 7.26667L3.55555 6.86756H2.87644L2.66666 6.22223L2.45777 6.86756H1.77866ZM3.55644 8.64534L4.10577 9.04445L3.896 9.6889L4.44444 9.29067L4.99377 9.6889L4.784 9.04445L5.33333 8.64534H4.65422L4.44444 8.00001L4.23555 8.64534H3.55644ZM7.112 8.64534L7.66133 9.04445L7.45155 9.6889L8 9.29067L8.54933 9.6889L8.33955 9.04445L8.88889 8.64534H8.20977L8 8.00001L7.79111 8.64534H7.112ZM10.6676 8.64534L11.2169 9.04445L11.0071 9.6889L11.5556 9.29067L12.1049 9.6889L11.8951 9.04445L12.4444 8.64534H11.7653L11.5556 8.00001L11.3467 8.64534H10.6676ZM3.55644 12.2009L4.10577 12.6L3.896 13.2445L4.44444 12.8462L4.99377 13.2445L4.784 12.6L5.33333 12.2009H4.65422L4.44444 11.5556L4.23555 12.2009H3.55644ZM7.112 12.2009L7.66133 12.6L7.45155 13.2445L8 12.8462L8.54933 13.2445L8.33955 12.6L8.88889 12.2009H8.20977L8 11.5556L7.79111 12.2009H7.112ZM10.6676 12.2009L11.2169 12.6L11.0071 13.2445L11.5556 12.8462L12.1049 13.2445L11.8951 12.6L12.4444 12.2009H11.7653L11.5556 11.5556L11.3467 12.2009H10.6676ZM5.33422 6.86756L5.88355 7.26667L5.67377 7.91112L6.22222 7.5129L6.77155 7.91112L6.56177 7.26667L7.11111 6.86756H6.432L6.22222 6.22223L6.01333 6.86756H5.33422ZM8.88977 6.86756L9.43911 7.26667L9.22933 7.91112L9.77778 7.5129L10.3271 7.91112L10.1173 7.26667L10.6667 6.86756H9.98755L9.77778 6.22223L9.56889 6.86756H8.88977ZM12.4453 6.86756L12.9947 7.26667L12.7849 7.91112L13.3333 7.5129L13.8827 7.91112L13.6729 7.26667L14.2222 6.86756H13.5431L13.3333 6.22223L13.1244 6.86756H12.4453ZM1.77866 10.4231L2.328 10.8222L2.11822 11.4667L2.66666 11.0685L3.216 11.4667L3.00622 10.8222L3.55555 10.4231H2.87644L2.66666 9.77778L2.45777 10.4231H1.77866ZM5.67377 11.4667L6.22222 11.0685L6.77155 11.4667L6.56177 10.8222L7.11111 10.4231H6.432L6.22222 9.77778L6.01333 10.4231H5.33422L5.88355 10.8222L5.67377 11.4667ZM8.88977 10.4231L9.43911 10.8222L9.22933 11.4667L9.77778 11.0685L10.3271 11.4667L10.1173 10.8222L10.6667 10.4231H9.98755L9.77778 9.77778L9.56889 10.4231H8.88977ZM12.4453 10.4231L12.9947 10.8222L12.7849 11.4667L13.3333 11.0685L13.8827 11.4667L13.6729 10.8222L14.2222 10.4231H13.5431L13.3333 9.77778L13.1244 10.4231H12.4453ZM1.77866 13.9787L2.328 14.3778L2.11822 15.0222L2.66666 14.624L3.216 15.0222L3.00622 14.3778L3.55555 13.9787H2.87644L2.66666 13.3333L2.45777 13.9787H1.77866ZM5.67377 15.0222L6.22222 14.624L6.77155 15.0222L6.56177 14.3778L7.11111 13.9787H6.432L6.22222 13.3333L6.01333 13.9787H5.33422L5.88355 14.3778L5.67377 15.0222ZM8.88977 13.9787L9.43911 14.3778L9.22933 15.0222L9.77778 14.624L10.3271 15.0222L10.1173 14.3778L10.6667 13.9787H9.98755L9.77778 13.3333L9.56889 13.9787H8.88977ZM12.4453 13.9787L12.9947 14.3778L12.7849 15.0222L13.3333 14.624L13.8827 15.0222L13.6729 14.3778L14.2222 13.9787H13.5431L13.3333 13.3333L13.1244 13.9787H12.4453Z" fill="white"/>
</g>
<defs>
<clipPath id="clip0_102_2">
<rect width="32" height="32" fill="white"/>
</clipPath>
</defs>
</svg>
